<?xml version="1.0" standalone="no"?>
<!DOCTYPE svg PUBLIC "-//W3C//DTD SVG 20010904//EN"
 "http://www.w3.org/TR/2001/REC-SVG-20010904/DTD/svg10.dtd">
<svg version="1.0" xmlns="http://www.w3.org/2000/svg"
 width="751.000000pt" height="751.000000pt" viewBox="0 0 751.000000 751.000000"
 preserveAspectRatio="xMidYMid meet">
<metadata>
Created by potrace 1.14, written by Peter Selinger 2001-2017
</metadata>
<g transform="translate(0.000000,751.000000) scale(0.100000,-0.100000)"
fill="#000000" stroke="none">
<path d="M3341 6995 c-4 -5 -7 -186 -7 -402 l1 -391 -65 35 c-36 19 -90 51
-121 69 -31 19 -62 34 -68 34 -6 0 -11 5 -11 11 0 5 -4 7 -10 4 -5 -3 -10 -2
-10 2 0 5 -26 22 -57 38 -32 17 -60 33 -63 36 -3 3 -12 8 -20 12 -8 4 -33 18
-55 32 -22 14 -47 28 -55 32 -8 4 -46 26 -85 48 -38 23 -95 55 -125 72 -30 17
-142 80 -248 142 -106 61 -197 111 -202 111 -6 0 -10 5 -10 10 0 6 -4 10 -10
10 -5 0 -47 22 -92 49 -46 27 -85 47 -87 45 -5 -5 -5 -2283 0 -2287 2 -2 46
-27 96 -56 51 -29 95 -57 98 -62 4 -5 10 -7 15 -4 4 3 13 -2 20 -10 7 -8 16
-15 21 -15 5 0 32 -15 62 -32 29 -18 61 -38 72 -45 25 -15 296 -172 390 -226
39 -22 72 -43 75 -46 3 -3 21 -14 40 -23 19 -10 53 -29 75 -42 22 -14 59 -35
82 -47 l41 -22 30 22 c17 11 32 21 35 21 2 0 64 36 137 80 73 44 137 80 141
80 5 0 9 4 9 10 0 5 11 12 25 16 14 3 25 10 25 15 0 5 4 9 9 9 5 0 46 23 91
50 45 28 92 55 106 60 13 5 24 14 24 20 0 5 4 10 9 10 12 0 235 133 239 143 2
4 8 5 13 1 5 -3 9 0 9 5 0 6 7 11 15 11 8 0 15 5 15 10 0 6 6 10 14 10 8 0 21
6 28 13 7 6 25 18 41 26 32 17 35 31 7 38 -11 3 -20 8 -20 12 0 4 -17 15 -37
26 -21 11 -57 32 -79 48 -23 15 -47 27 -53 27 -6 0 -11 4 -11 8 0 5 -15 16
-32 25 -18 10 -46 26 -63 37 -16 11 -37 23 -45 27 -8 4 -42 24 -74 45 l-59 38
-36 -22 c-20 -12 -47 -29 -61 -37 -14 -9 -34 -21 -45 -28 -141 -85 -261 -158
-265 -163 -7 -7 -42 -29 -65 -39 -11 -6 -33 -19 -50 -30 -40 -28 -52 -27 -111
10 -27 18 -63 40 -80 50 -17 9 -42 23 -55 31 -13 7 -26 15 -29 18 -3 3 -26 17
-52 30 -27 14 -48 29 -48 33 0 5 -4 5 -10 2 -5 -3 -10 -1 -10 4 0 6 -5 11 -10
11 -9 0 -65 32 -136 78 -10 6 -30 18 -44 24 -14 7 -29 17 -35 23 -12 12 -13
1101 -2 1098 12 -3 90 -43 122 -63 17 -10 48 -29 70 -41 70 -39 89 -50 130
-73 22 -13 63 -36 90 -51 28 -15 56 -32 63 -37 6 -6 12 -7 12 -2 0 5 4 3 9 -4
4 -8 27 -23 49 -35 114 -60 167 -90 172 -96 5 -6 13 -11 96 -56 27 -14 72 -40
99 -56 28 -16 57 -32 65 -36 8 -3 23 -13 33 -21 9 -8 17 -11 17 -6 0 5 4 5 8
-1 7 -10 29 -23 102 -62 19 -10 37 -21 40 -24 3 -4 25 -17 49 -30 99 -54 128
-71 176 -99 28 -17 58 -33 68 -36 9 -4 17 -10 17 -15 0 -5 5 -9 12 -9 14 0
171 -89 179 -102 3 -6 8 -9 10 -8 6 2 43 -13 49 -20 3 -3 26 -17 53 -30 26
-14 47 -28 47 -32 0 -5 5 -8 11 -8 7 0 63 -29 126 -65 62 -36 135 -77 161 -92
26 -14 54 -31 62 -38 8 -7 25 -16 37 -19 13 -4 29 -13 36 -19 7 -7 42 -27 77
-46 36 -19 67 -37 70 -40 3 -3 31 -19 62 -36 63 -33 63 -40 -2 -71 -22 -10
-40 -22 -40 -26 0 -5 -4 -8 -10 -8 -5 0 -50 -25 -100 -55 -50 -30 -92 -55 -95
-55 -8 0 -110 -65 -117 -75 -4 -5 -8 -6 -8 -2 0 5 -13 -1 -29 -12 -16 -12 -34
-21 -40 -21 -6 0 -11 -4 -11 -9 0 -5 -8 -11 -17 -14 -10 -4 -40 -20 -68 -37
-27 -17 -57 -33 -65 -37 -8 -3 -34 -19 -56 -34 -23 -16 -44 -25 -48 -22 -3 4
-6 2 -6 -4 0 -5 -18 -18 -40 -29 -22 -10 -40 -22 -40 -26 0 -5 -4 -8 -10 -8
-5 0 -44 -20 -86 -45 -41 -25 -80 -45 -85 -45 -5 0 -9 -4 -9 -8 0 -5 -18 -16
-40 -26 -22 -10 -46 -23 -53 -29 -6 -7 -23 -18 -37 -24 -14 -7 -43 -24 -65
-38 -22 -14 -47 -28 -55 -32 -8 -4 -37 -20 -65 -37 -87 -54 -109 -66 -137 -79
-16 -6 -28 -15 -28 -19 0 -4 -7 -8 -15 -8 -8 0 -15 -4 -15 -10 0 -5 -3 -9 -7
-8 -5 1 -70 -35 -146 -80 -76 -45 -143 -82 -148 -82 -5 0 -9 -4 -9 -9 0 -5
-12 -14 -27 -20 -50 -20 -86 -46 -94 -69 -6 -15 -5 -22 4 -22 8 0 9 -3 1 -8
-13 -9 -13 -64 1 -74 7 -5 6 -8 0 -8 -14 0 -13 -110 0 -110 6 0 6 -3 0 -8 -13
-9 -13 -145 0 -154 7 -5 7 -8 0 -8 -6 0 -10 -45 -10 -115 0 -70 4 -115 10
-115 7 0 6 -3 0 -8 -14 -9 -13 -304 0 -314 7 -5 6 -8 0 -8 -14 0 -14 -182 0
-192 7 -5 7 -8 0 -8 -5 0 -10 -22 -10 -49 -1 -44 1 -49 19 -45 11 2 22 7 25
12 3 5 18 15 33 23 34 18 251 151 258 158 3 4 19 13 35 21 17 8 34 21 38 28 5
7 12 10 16 8 4 -3 17 4 29 14 12 11 25 20 30 20 4 0 8 155 8 345 l-1 344 85
48 c47 26 87 49 90 52 3 4 12 7 20 9 8 2 17 8 18 13 2 5 10 9 18 9 8 0 14 5
14 11 0 5 4 8 8 5 5 -3 24 5 43 18 19 13 57 35 84 50 47 26 85 47 165 91 19
11 42 25 50 32 8 6 22 13 30 15 8 2 17 6 20 9 5 5 130 78 160 92 8 4 24 13 35
20 11 7 76 43 145 81 69 38 127 72 130 75 3 4 23 15 45 26 22 11 43 24 46 28
3 5 9 7 12 5 4 -1 15 5 27 14 11 10 31 20 45 24 14 3 25 9 25 13 0 9 51 35 63
33 4 -1 7 2 7 8 0 5 4 10 10 10 5 0 40 19 77 41 37 23 73 42 80 43 7 1 19 8
25 14 7 7 18 12 25 12 7 0 13 4 13 9 0 5 15 14 33 22 17 7 34 15 37 18 3 3 25
17 50 30 25 13 53 31 64 40 10 9 19 14 20 12 0 -3 33 13 71 36 39 22 91 52
118 67 26 14 68 38 95 53 26 14 56 31 67 37 11 6 22 14 25 17 3 3 23 14 45 25
22 10 42 20 45 23 3 4 23 15 45 26 22 11 42 22 45 25 3 3 14 10 25 16 84 46
141 77 143 80 2 1 -11 10 -30 20 -18 9 -36 21 -39 26 -3 5 -9 9 -13 9 -7 -2
-69 29 -76 38 -4 5 -26 17 -115 65 -11 6 -22 13 -25 16 -7 7 -55 33 -125 69
-33 17 -56 31 -52 31 5 0 -22 16 -60 36 -37 20 -71 41 -75 48 -4 6 -8 7 -8 2
0 -5 -8 -3 -17 5 -10 8 -31 21 -48 29 -16 8 -32 18 -35 21 -3 3 -17 12 -31 20
-111 60 -181 100 -294 168 -37 23 -73 41 -81 41 -8 0 -14 5 -14 10 0 6 -7 10
-15 10 -8 0 -15 5 -15 10 0 6 -3 9 -7 8 -5 -1 -19 5 -33 14 -53 34 -151 88
-160 88 -4 0 -10 3 -12 8 -1 4 -19 15 -38 26 -115 62 -476 272 -482 280 -4 6
-8 7 -8 3 0 -5 -13 1 -29 12 -16 12 -34 21 -40 21 -6 0 -11 5 -11 11 0 5 -4 7
-10 4 -6 -3 -10 -2 -10 4 0 5 -8 12 -18 15 -18 6 -19 33 -18 586 1 319 -3 580
-7 580 -5 0 -6 4 -3 9 7 11 -13 9 -33 -3 -10 -6 -12 -5 -7 2 4 7 3 12 -3 12
-5 0 -13 -5 -16 -10 -3 -6 -14 -7 -23 -2 -22 9 -53 9 -71 -2 -10 -6 -12 -5 -7
2 4 7 3 12 -3 12 -5 0 -13 -5 -16 -10 -3 -6 -14 -7 -23 -2 -22 9 -53 9 -71 -2
-10 -6 -12 -5 -7 2 4 7 3 12 -3 12 -5 0 -13 -5 -16 -10 -3 -6 -14 -7 -23 -2
-22 9 -53 9 -71 -2 -10 -6 -12 -5 -7 2 4 7 3 12 -3 12 -5 0 -13 -5 -16 -10 -4
-6 -11 -8 -16 -5 -17 11 -180 11 -188 0z"/>
<path d="M1936 4175 c-3 -8 -1 -15 5 -15 6 0 7 -5 3 -12 -11 -18 -9 -3581 3
-3585 5 -2 26 7 45 21 20 13 39 22 42 18 3 -3 6 0 6 6 0 7 4 12 10 12 5 0 47
22 93 49 46 27 106 62 133 77 27 15 67 37 89 50 22 13 50 28 62 33 11 5 24 15
28 21 3 5 11 8 16 5 5 -4 9 -1 9 4 0 6 7 11 15 11 8 0 15 5 15 12 0 6 3 8 6 5
4 -3 18 3 32 13 13 11 29 20 34 20 6 0 22 9 38 20 15 11 30 17 34 13 3 -3 6
-1 6 5 0 7 15 18 33 26 17 8 59 31 92 51 33 19 83 47 110 61 28 15 52 30 53
35 2 5 12 9 22 9 10 0 20 4 22 8 5 12 329 193 336 188 4 -2 7 -182 7 -400 l-1
-396 76 0 c245 -2 553 0 558 4 4 2 7 264 6 581 -1 660 -13 586 103 645 37 19
70 37 73 41 3 3 30 19 60 35 30 16 57 31 60 35 3 3 28 16 55 30 28 13 52 27
55 30 6 6 170 99 176 99 2 0 13 8 24 18 11 9 24 17 28 17 9 1 71 36 215 120
23 14 56 32 72 40 17 9 44 24 60 35 17 10 51 29 78 42 26 13 47 26 47 30 0 5
6 8 14 8 7 0 19 7 26 15 7 8 16 12 21 9 5 -3 9 0 9 6 0 6 5 8 10 5 6 -3 10 -2
10 2 0 5 25 21 55 37 30 15 57 32 60 37 4 5 15 9 26 9 10 0 19 4 19 8 0 5 17
17 38 28 126 68 177 98 180 106 2 4 8 8 14 8 5 0 57 27 114 60 57 33 108 60
113 60 5 0 72 -64 149 -142 82 -82 140 -134 138 -123 -2 11 -1 25 3 30 3 6 7
17 8 25 5 33 12 65 13 65 1 0 3 11 5 25 4 30 9 53 30 150 9 41 18 86 20 100 2
14 4 25 5 25 2 0 10 38 14 70 3 17 5 30 6 30 1 0 7 29 13 63 1 9 5 22 8 27 3
6 4 20 3 33 0 12 3 22 8 22 5 0 7 3 4 8 -2 4 2 34 10 67 8 33 17 76 20 95 3
19 10 53 15 75 5 22 11 49 13 60 2 11 6 35 10 53 7 30 6 32 -21 33 -15 1 -32
0 -38 -1 -5 -1 -63 -4 -127 -5 -64 -2 -122 -6 -127 -10 -6 -3 -11 0 -11 7 0 8
-3 9 -8 3 -4 -5 -43 -10 -87 -10 -44 0 -92 -3 -106 -6 -14 -4 -33 -2 -42 3
-10 5 -17 5 -17 1 0 -4 -30 -9 -68 -9 -37 -1 -132 -5 -212 -8 -80 -4 -191 -8
-248 -10 -57 -2 -105 -6 -107 -8 -2 -2 67 -74 154 -161 86 -86 155 -161 152
-165 -3 -5 -22 -17 -41 -27 -18 -10 -40 -24 -48 -31 -7 -8 -18 -14 -24 -14 -6
0 -26 -11 -45 -26 -18 -14 -33 -22 -33 -18 0 4 -8 0 -17 -8 -10 -8 -58 -39
-108 -69 -49 -30 -96 -59 -102 -65 -7 -7 -26 -18 -43 -26 -16 -7 -30 -15 -30
-19 0 -3 -16 -11 -35 -19 -19 -8 -35 -17 -35 -20 0 -3 -22 -17 -50 -31 -27
-13 -50 -27 -50 -31 0 -5 -5 -8 -10 -8 -6 0 -35 -15 -64 -34 -29 -18 -62 -37
-74 -40 -12 -4 -22 -11 -22 -16 0 -4 -12 -13 -27 -19 -16 -6 -59 -31 -98 -55
-38 -25 -76 -45 -82 -46 -7 0 -13 -4 -13 -10 0 -5 -4 -10 -9 -10 -6 0 -38 -17
-73 -39 -96 -59 -412 -245 -423 -250 -5 -2 -22 -12 -36 -22 -14 -10 -29 -16
-33 -12 -3 3 -6 1 -6 -5 0 -6 -12 -17 -27 -24 -53 -26 -178 -103 -181 -110 -2
-5 -9 -8 -17 -8 -7 0 -18 -7 -25 -15 -7 -9 -15 -13 -18 -11 -2 3 -16 -4 -30
-14 -13 -11 -29 -20 -34 -20 -5 0 -14 -5 -21 -11 -17 -15 -81 -53 -89 -54 -4
0 -16 -7 -26 -15 -19 -15 -36 -26 -101 -62 -20 -11 -107 -62 -193 -114 -87
-52 -160 -94 -163 -94 -4 0 -21 -11 -39 -25 -18 -14 -36 -25 -40 -25 -6 0 -86
-49 -96 -60 -3 -3 -12 -6 -20 -8 -8 -2 -22 -9 -30 -16 -8 -7 -40 -27 -71 -45
l-57 -31 -1 1232 c-1 678 -3 1238 -3 1244 -1 6 -26 23 -57 39 -31 16 -68 37
-83 47 -14 10 -33 18 -42 18 -9 0 -16 4 -16 9 0 5 -11 12 -25 15 -14 4 -25 11
-25 16 0 6 -9 10 -19 10 -11 0 -21 4 -23 9 -1 5 -34 25 -73 45 -38 20 -89 47
-112 61 -34 20 -42 22 -47 10z"/>
</g>
</svg>
